<?xml version="1.0" standalone="no"?>
<svg version="1.2" xmlns="http://www.w3.org/2000/svg" xmlns:xlink="http://www.w3.org/1999/xlink" overflow="visible" preserveAspectRatio="none" viewBox="0 0 14 14" width="14" height="14"><g transform="translate(0, 0)"><g transform="translate(0, 0) rotate(0)"><path d="M5,1v4h-4v-4zM6,0h-6v6h6zM13,1v4h-4v-4zM14,0h-6v6h6zM5,9v4h-4v-4zM6,8h-6v6h6zM13,9v4h-4v-4zM14,8h-6v6h6z" style="stroke-width: 0; stroke-linecap: butt; stroke-linejoin: miter; fill: rgb(94, 94, 94);"/></g><defs><path id="path-1647666142477386" d="M5,1v4h-4v-4zM6,0h-6v6h6zM13,1v4h-4v-4zM14,0h-6v6h6zM5,9v4h-4v-4zM6,8h-6v6h6zM13,9v4h-4v-4zM14,8h-6v6h6z"/></defs></g></svg>