<?xml version="1.0" standalone="no"?>
<svg version="1.1" xmlns="http://www.w3.org/2000/svg" xmlns:xlink="http://www.w3.org/1999/xlink" overflow="visible" preserveAspectRatio="none" viewBox="0 0 16 16" height="12" width="12" y="0px" x="0px" id="icon-visibility-visible" xml:space="preserve"><g transform="translate(1, 1)"><path d="M9,6.5a2,2,0,0,1-2,2,2,2,0,0,1-2-2,2,2,0,0,1,2-2A2,2,0,0,1,9,6.5ZM7,3C4.87,3,2.83,4.24,1.21,6.5,2.83,8.76,4.87,10,7,10s4.17-1.24,5.79-3.5C11.17,4.24,9.13,3,7,3M7,2c2.53,0,5.07,1.5,7,4.5C12.07,9.5,9.53,11,7,11S1.93,9.5,0,6.5C1.93,3.5,4.47,2,7,2Z" vector-effect="non-scaling-stroke" style="fill: rgb(94, 94, 94);"/></g></svg>