<?xml version="1.0" standalone="no"?>
<svg version="1.2" xmlns="http://www.w3.org/2000/svg" xmlns:xlink="http://www.w3.org/1999/xlink" overflow="visible" preserveAspectRatio="none" viewBox="0 0 16 16" height="12" width="12" y="0px" x="0px" id="icon-visibility-hidden_1635247886307" xml:space="preserve"><g transform="translate(1, 1)"><path d="M14,6.5H12.79a10.08,10.08,0,0,1-1,1.15,9.36,9.36,0,0,1-.73.69A7,7,0,0,1,9.27,9.51a5.59,5.59,0,0,1-.95.32A6,6,0,0,1,7,10a6,6,0,0,1-1.32-.17,5.59,5.59,0,0,1-.95-.32A7,7,0,0,1,2.9,8.34a9.36,9.36,0,0,1-.73-.69,11,11,0,0,1-1-1.15H0A12.85,12.85,0,0,0,1.53,8.44L.11,10.18l.78.64,1.37-1.7a8.2,8.2,0,0,0,2.23,1.36L4,12.38l1,.24.46-1.83A6.43,6.43,0,0,0,7,11a6.43,6.43,0,0,0,1.56-.21L9,12.62l1-.24-.48-1.9a8.2,8.2,0,0,0,2.23-1.36l1.37,1.7.78-.64L12.47,8.44A12.85,12.85,0,0,0,14,6.5Z" vector-effect="non-scaling-stroke"/></g></svg>